<?xml version="1.0" encoding="utf-8"?>
<!-- Generator: Adobe Illustrator 17.1.0, SVG Export Plug-In . SVG Version: 6.00 Build 0)  -->
<!DOCTYPE svg PUBLIC "-//W3C//DTD SVG 1.1//EN" "http://www.w3.org/Graphics/SVG/1.1/DTD/svg11.dtd">
<svg version="1.1" xmlns="http://www.w3.org/2000/svg" xmlns:xlink="http://www.w3.org/1999/xlink" x="0px" y="0px" width="157.6px"
	 height="67px" viewBox="0 0 157.6 67" enable-background="new 0 0 157.6 67" xml:space="preserve">
<g id="Layer_2_1_">
	<g>
		<path fill="#C39406" d="M40.9,65.6h-8.2L32.2,59c-3.2,5.8-7,8-12.2,8C8.2,67,0,53.4,0,33.5C0,13.8,8.9,0,21.5,0
			c9.4,0,17.6,9.4,18.8,23.9H27.8c-0.8-4.9-3.1-7.5-6.6-7.5c-6.9,0-8.2,9.7-8.2,18.1c0,11.1,3.1,17,8.9,17c3.8,0,6.4-2.7,7.2-7.5
			h-5.6V30.3h17.3V65.6z"/>
		<path fill="#C39406" d="M87.1,65.6H74L72,56.5H58.4l-2.1,9.1H43.3l15.6-64h12.8L87.1,65.6z M66.9,31.7c-0.9-4.4-1-5.5-1.6-9.7
			c-0.7,4.4-0.9,5.8-1.8,9.8c0,0-0.9,4.4-2.3,10.9h7.9C68.3,39,66.9,31.7,66.9,31.7z"/>
		<path fill="#C39406" d="M121.7,65.6H90v-64h13v47.3h18.7V65.6z"/>
		<path fill="#C39406" d="M144.7,65.6h-14.6l-12.6-64h13.1l2.1,11.4c2,10.8,3.9,21.9,4.8,33c1-11.1,2.9-22.1,4.9-32.9l2.1-11.5h13.2
			L144.7,65.6z"/>
	</g>
</g>
<g id="Layer_4">
	<linearGradient id="SVGID_1_" gradientUnits="userSpaceOnUse" x1="70.7152" y1="16.5934" x2="59.3138" y2="55.8878">
		<stop  offset="0" style="stop-color:#FFFFFF"/>
		<stop  offset="1" style="stop-color:#BBBBBB"/>
	</linearGradient>
	<ellipse fill="url(#SVGID_1_)" cx="65.2" cy="35.6" rx="13.7" ry="20.4"/>
</g>
</svg>
